<?xml version="1.0" encoding="UTF-8" standalone="no"?>
<svg width="504px" height="567px" viewBox="0 0 504 567" version="1.1" xmlns="http://www.w3.org/2000/svg" xmlns:xlink="http://www.w3.org/1999/xlink" xmlns:sketch="http://www.bohemiancoding.com/sketch/ns">
    <!-- Generator: Sketch 3.0.2 (7799) - http://www.bohemiancoding.com/sketch -->
    <title>bottom</title>
    <description>Created with Sketch.</description>
    <defs>
        <linearGradient x1="50%" y1="42.760327%" x2="50%" y2="0.660211769%" id="linearGradient-1">
            <stop stop-color="#B4A8BD" offset="0%"></stop>
            <stop stop-color="#CE8FA9" offset="100%"></stop>
        </linearGradient>
    </defs>
    <g id="Page-1" stroke="none" stroke-width="1" fill="none" fill-rule="evenodd" sketch:type="MSPage">
        <g id="Artboard-1" sketch:type="MSArtboardGroup" transform="translate(0.000000, -41.000000)" fill="url(#linearGradient-1)">
            <g id="tower" sketch:type="MSLayerGroup" transform="translate(-37.000000, 0.000000)">
                <path d="M10.7013177,124.923133 L58.0066801,99.8815529 L70.1795388,99.8815529 L70.1795388,87.9252814 L103.621065,69.9214038 L116.434846,69.9214038 L116.434846,57.2418096 L140.688785,41.2758497 L219.938112,41.2758497 L219.938114,71.9184171 L261.008629,71.9184171 L261.008629,41.2758497 L316.208095,41.2758497 L316.208083,71.9184171 L357.721131,71.9184171 L357.721129,41.2758497 L437.883497,41.2758497 L461.649511,57.2418098 L461.649504,69.9214038 L474.694637,69.9214038 L507.627349,87.9252814 L507.627349,99.881553 L525.654252,99.881553 L561.337597,119.402878 L561.337573,622.19772 L10.7013177,622.19772 L10.7013177,124.923133 Z" id="bottom" sketch:type="MSShapeGroup"></path>
            </g>
        </g>
    </g>
</svg>