<?xml version="1.0" encoding="UTF-8" standalone="no"?>
<svg width="84px" height="31px" viewBox="0 0 84 31" version="1.1" xmlns="http://www.w3.org/2000/svg" xmlns:xlink="http://www.w3.org/1999/xlink" xmlns:sketch="http://www.bohemiancoding.com/sketch/ns">
    <!-- Generator: Sketch 3.0.2 (7799) - http://www.bohemiancoding.com/sketch -->
    <title>trapdoor</title>
    <description>Created with Sketch.</description>
    <defs>
        <path d="M18.9999993,8 C18.9999995,6.06700338 17.4329962,4.5 15.4999995,4.5 C13.5670029,4.5 11.9999993,6.06700338 11.9999991,8 C11.9999988,9.93299662 13.5670021,11.5 15.4999988,11.5 C17.4329955,11.5 18.9999991,9.93299662 18.9999993,8 Z M17.9999993,8 C17.9999994,6.61928813 16.8807113,5.5 15.4999994,5.5 C14.1192875,5.5 12.9999993,6.61928813 12.9999991,8 C12.9999989,9.38071187 14.119287,10.5 15.4999989,10.5 C16.8807109,10.5 17.9999991,9.38071187 17.9999993,8 Z" id="path-1"></path>
    </defs>
    <g id="Page-1" stroke="none" stroke-width="1" fill="none" fill-rule="evenodd" sketch:type="MSPage">
        <g id="Artboard-1" sketch:type="MSArtboardGroup" transform="translate(-235.000000, -186.000000)">
            <g id="trapdoor" sketch:type="MSLayerGroup" transform="translate(236.000000, 186.000000)">
                <path d="M1.43676673,5.60659885 L-0.305419879,0 L51.4158143,0 L56.2090153,5.60659899 L19.3114235,5.6065989 C18.5150248,4.34102195 17.1057278,3.5 15.4999996,3.5 C13.8942715,3.5 12.4849744,4.34102194 11.6885754,5.60659888 L1.43676673,5.60659885 Z M58.1573427,8.40989849 L63.7444481,14.0164975 L4.1135233,14.0164973 L2.30566275,8.40989849 L11.0184167,8.40989849 C11.2254806,10.703081 13.1528931,12.5 15.4999987,12.5 C17.8471044,12.5 19.7745172,10.703081 19.9815816,8.40989849 L58.1573427,8.40989849 Z M72.3856767,22.426396 L66.0046666,16.819797 L5.00951905,16.819797 L6.78832694,22.4263958 L72.3856767,22.426396 Z M82.1327011,30.8362944 L74.9577863,25.2296955 L7.56103176,25.2296955 L9.33671501,30.8362944 L82.1327011,30.8362944 Z" id="Rectangle-1" fill="#CD5D4C" sketch:type="MSShapeGroup"></path>
                <g id="Oval-2">
                    <use fill="#CC5D4C" fill-rule="evenodd" sketch:type="MSShapeGroup" xlink:href="#path-1"></use>
                    <use fill="none" xlink:href="#path-1"></use>
                </g>
                <path d="M15.9335929,8.75109863 C14.3175039,8.75109863 14.4746084,9.63134766 14.4746084,9.63134766 C14.4746084,9.63134766 14.3824452,10.1367188 14.8199452,10.1367188 C15.2574453,10.1367188 15.4562978,10.2550049 15.6949452,11.1054688 C15.9335925,11.9559326 15.6380601,13.1982422 16.7005602,13.1982422 C17.7630604,13.1982422 17.9111927,13.081604 18.1109608,12.6158447 C18.1109609,11.892334 17.5496818,8.75109863 15.9335929,8.75109863 Z" id="Path-8" fill="#CC5D4C" sketch:type="MSShapeGroup"></path>
            </g>
        </g>
    </g>
</svg>